<svg xmlns="http://www.w3.org/2000/svg" width="48" height="48" fill="none" aria-labelledby="blz-icon-title-diablo-IV" viewBox="0 1 48 48" part="icon"><title id="blz-icon-title-diablo-IV">Diablo IV</title><path fill="#DD0707" fill-rule="evenodd" d="M5.79 8.96c.058 0 .497.203.497.203s.86 1.045.918 1.122a.8.8 0 0 1 .089.242l.165.619c.02.069-.038.183-.038.183s.042.442.065.668h.388c1.593 0 3.742.02 5.77.042.05-.658.095-1.239.104-1.29.019-.122.105-.374.105-.374l.665-1.072.803-.79s.177-.173.204-.216c.102-.166 1.669-1.363 1.669-1.363s-.137-.064-.166-.064l-.94.024s-.566.032-.614.04a4 4 0 0 1-.482.015A29 29 0 0 1 14 6.883c-.076-.012-.722.074-.722.074s-2.034-.002-2.265-.022-.623-.116-.623-.116l-.822-.038-1.892-.096c-.163-.015-.802-.19-.802-.19s-.348-.007-.956-.007c-.714 0-4.663.178-4.663.178L1 6.78l4.408 1.962c.135.076.325.216.383.216m6.24 11.403c-.957-.471-2.934-1.82-3.803-2.424l-.586-.404a82 82 0 0 0-.071 1.788c.003.26-.006.372.111.44.118.07.168.222.168.222s.015.344.037.482c.02.137-.087.34-.115.4-.028.062.013.169.013.169s.605 2.522.68 2.882c.074.36.46 2.233.473 2.378s.558 4.353.65 4.95c.047.314.247 1.64.433 2.888a42 42 0 0 1 1.642-.45c-.11-.351-.201-.852-.233-1.61-.014-.342.004-1.329.03-2.685a89 89 0 0 0 .018-1.051c0-.447.105-.813.244-1.106a2.5 2.5 0 0 1-.194-.96c0-.868.004-3.76.054-4.5.033-.48.206-.96.45-1.409m1.326 19.171a70 70 0 0 1-2.689.06c.058.614.105 1.095.116 1.17.033.213.252 2.876.245 3.028s.144.612.144.612.072.539.143.784c.071.244.106.913.268 1.51.161.596.267.783.267.783s.757-3.884 1.1-5.887c.105-.619.193-1.083.2-1.127.023-.141.093-.256.076-.287s.047-.273.048-.296c0-.01.039-.17.082-.35m4.881-31.808c.078.119.494.564.49.636.07.09.134.205.134.205l1.016 1.07s1.529 1.363 1.634 1.446.14.281.191.382c.052.101-.035.146.219.47.024.03.05.078.076.131a622 622 0 0 1 5.539-.01 4 4 0 0 1-.014-.479c.011-.444.206-.493.5-.743.293-.25.393-.36.51-.51s.831-1.228.904-1.324.79-.816 1.325-1.262a8 8 0 0 0 .867-.93c-.51-.038-.88 0-.88 0s-.222-.038-.362-.043c-.14-.006-.803-.076-1.023-.082s-1.036.122-1.407.182c-.37.061-1.077.099-1.077.099s-.21-.018-.41-.05c-.2-.031-.58-.175-.58-.175-.273-.01-1.462.018-1.702.015-.239-.004-.742-.02-.742-.02s-.214-.004-.294.004-1.507-.027-1.507-.027a2.7 2.7 0 0 1-.543.217c-.137.034-.996-.024-1.002-.026-.005-.002-.293-.025-.319-.047q-.012-.01-.027-.009c-.2.024-.487-.011-.504-.011l-.742.031c-.27.024-.864.005-.948.005-.057-.007.021.088.057.123.092.167.467.497.62.732m5.624 10.423c.029.04.066.083.104.152.092.167.173.445.204.656.017.123.167.17.12.228-.045.058.102.454.102.454l.486 1.665.46 2.097c.04.193.647 1.795.652 1.888s.638 2.295.79 2.375c.084.043.364.788.629 1.517.177-.607.282-1.23.37-1.761l.027-.158a4 4 0 0 0 .04-.527c.018-.508.04-1.172.412-2.048-.042-.757-.01-1.458.006-1.83l.006-.17a7 7 0 0 0-.188-1.176 9 9 0 0 1-.107-.473c-.056-.271-.203-.986-.37-1.193l-1.573-1.286.179-.166a33 33 0 0 0-2.349-.244M46.998 2.05c-.026-.163-.095-.03-.095-.03L45.07 5.2c-.069.144-.095.258-.14.256-.029-.002-.026.232-.09.23-.086-.005-.05.054-.089.122-.069.12-1.38 2.689-1.583 3.118-.202.43-1.772 4.006-2.033 4.58a810 810 0 0 0-1.958 4.42c-.2.461-.804 1.877-1.204 2.793.137.389.266.761.376 1.09q.048.145.072.294l.236.702-.53.677c-.102.225-.3.83-.402 1.264-.025.109-.063.297-.111.535-.182.9-.488 2.407-.848 3.444-.22.635-1.442 3.92-3.825 6.173-.887.838-1.88 1.504-2.856 2.033.288.911.574 1.82.652 2.046.16.474.845 2.642 1.053 3.306.209.664.726 2.387.726 2.387.139.505.178.812.291.812.07 0 .13-.097.13-.097s.157-.24.237-.326.085-.253.102-.31c.018-.06.243-.292.243-.292s.448-1.25.483-1.359.17-.213.187-.267.113-.113.113-.113.543-.648.556-.69c.013-.044.278-.393.321-.436.044-.042.117-.12.126-.175s0-.112 0-.112.365-1.549.448-1.933c.082-.384.578-2.407.617-2.605s.27-.413.274-.483.262-1.337.349-1.43.06-.167.082-.221.9-1.556 1.083-1.746.058-.503.058-.503.123-.254.123-.34c0-.085.043-.143.043-.143l.287-.342c.091-.108.144-.147.17-.22s.556-1.903.63-2.147c.074-.245.125-.305.199-.522s.622-1.92.748-2.328.773-2.6.9-2.97c.125-.368.456-1.516.556-1.76a.59.59 0 0 0 0-.497c-.039-.086-.158-.29-.293-.523s.11-.53.083-.67a.38.38 0 0 1 .03-.268c.027-.05.018-.163.035-.244.018-.082.14-.39.158-.487s.331-1.249.331-1.249l.693-2.542.257-.887c.034-.122-.062-.168-.066-.221-.005-.068.017-.176.072-.379.044-.162.39-1.368.458-1.5.07-.132.157-.448.2-.693s.243-.78.376-1.102.162-.489.21-.614c.114-.293.133-.4.145-.573s.07-.51.076-.573.153-.42.153-.42c.012-.086.116-.37.235-.628.119-.259.295-.727.382-.916s.191-.456.206-.58.174-.46.255-.668c.081-.206.234-.616.298-.795s.2-.4.2-.4c.026-.095.12-.297.172-.4s.017-.413.068-.519c.073-.155.118-.281.114-.315s.304-.735.277-.898" clip-rule="evenodd"></path><path fill="#EBE9E8" fill-rule="evenodd" d="M17.184 16.224c.418.389 1.895 1.836 2.274 2.155.38.319.978 1.037.988 1.447-.409.04-1.646.01-1.936-.07-.289-.08-.398-.08-.379.16.06.748.3 4.898.33 5.227s.11.54.26.709c.149.17 1.096 1.147 1.256 1.416-.23.26-.988.998-1.117 1.137-.13.14-.31.24-.32.739s-.03 2.464.01 2.843c.04.38.13 1.816-.05 2.136.819 0 3.789-.029 5.102-.089 1.49-.067 3.077-.692 4.097-1.727 1.357-1.377 1.66-3.466 1.876-4.75.15-.887-.09-1.416.509-2.534-.1-.957-.03-1.955-.02-2.284.01-.33-.11-1.178-.25-1.696-.14-.52-.289-1.946-1.057-2.574.3-.28.499-.56.678-.729.18-.17.372-.412-.08-.559-1.137-.369-4.11-.798-6.065-.858-1.63-.05-5.119-.209-6.106-.1m1.456-2.345c1.699 0 7.448-.078 12.122 0 2.079.035 3.985.14 5.158.23.445.034.42.15.27.359-.15.21-.789.698-1.227 1.127-.44.429-.27 1.068-.1 1.676.167.6 1.221 3.423 1.786 5.108.007.023-.008.058 0 .08-.22.28-.549 1.367-.669 1.876s-.489 2.594-.908 3.801-1.546 3.742-3.362 5.458-4.4 2.803-6.565 3.312-7.183.738-9.468.768c-.27.004-.34-.03-.429-.12-.09-.09-.23-.339-.449-.329-.22.01-.34.15-.529.44-.429.08-2.294.12-3.093.13s-3.152 0-3.92-.1c.229-.21.498-.47 1.286-1.048.789-.58 3.712-1.267 4.58-1.477.555-.134.519-.479.569-.788s-.09-.808-.24-1.058c-.15-.249-.21-.848-.23-1.327s.05-3.242.05-3.661.26-.579.46-.818c.2-.24.08-.559-.14-.699-.132-.083-.27-.309-.27-.549 0-.239 0-3.641.05-4.38s1.118-1.925 1.866-2.553c-.21-.14-.668-.26-1.038-.27-.369-.01-.788-.09-1.277-.27-.489-.179-2.594-1.586-3.671-2.334-1.078-.748-2.734-1.856-2.953-2.025-.22-.17-.5-.48-.52-.619 1.607-.09 10.407.06 12.861.06" clip-rule="evenodd"></path></svg>